# xmcd
#
# Track frame offsets: 
#        150
#        16958
#        35015
#        54069
#        67649
#        82235
#        98050
#        116052
#        135300
#        151601
#        168745
#        189210
#        205187
#        225474
#        242064
#        269672
#
# Disc length: 3795 seconds
#
# Revision: 0
# Processed by: cddbd v1.5.2PL0 Copyright (c) Steve Scherf et al.
# Submitted via: ExactAudioCopy v0.99pb5
#
DISCID=c70ed110
DTITLE=Latin Passion - Latin Passion
DYEAR=1900
DGENRE=Latin
TTITLE0=Tragedia
TTITLE1=Coraz de melao
TTITLE2=Carino
TTITLE3=Suavemente
TTITLE4=Suerte
TTITLE5=La isla bonita
TTITLE6=Let's get loud
TTITLE7=Aysendora
TTITLE8=Dance with me
TTITLE9=Dimelo
TTITLE10=Corazon espinado
TTITLE11=Bailamos
TTITLE12=Respirando
TTITLE13=Represent Cuba
TTITLE14=Estoy aqui
TTITLE15=I love to love
EXTD=
EXTT0=
EXTT1=
EXTT2=
EXTT3=
EXTT4=
EXTT5=
EXTT6=
EXTT7=
EXTT8=
EXTT9=
EXTT10=
EXTT11=
EXTT12=
EXTT13=
EXTT14=
EXTT15=
PLAYORDER=
